<?xml version="1.0" encoding="UTF-8" standalone="no"?>
<svg
   xmlns:dc="http://purl.org/dc/elements/1.1/"
   xmlns:cc="http://creativecommons.org/ns#"
   xmlns:rdf="http://www.w3.org/1999/02/22-rdf-syntax-ns#"
   xmlns:svg="http://www.w3.org/2000/svg"
   xmlns="http://www.w3.org/2000/svg"
   xmlns:sodipodi="http://sodipodi.sourceforge.net/DTD/sodipodi-0.dtd"
   xmlns:inkscape="http://www.inkscape.org/namespaces/inkscape"
   height="100"
   id="Layer_1"
   version="1.1"
   viewBox="0 0 100 100"
   width="100"
   xml:space="preserve"
   sodipodi:docname="211913_rss_social_icon.svg"
   inkscape:version="1.0.2-2 (e86c870879, 2021-01-15)"><metadata
     id="metadata62"><rdf:RDF><cc:Work
         rdf:about=""><dc:format>image/svg+xml</dc:format><dc:type
           rdf:resource="http://purl.org/dc/dcmitype/StillImage" /><dc:title></dc:title></cc:Work></rdf:RDF></metadata><defs
     id="defs60" /><sodipodi:namedview
     pagecolor="#ffffff"
     bordercolor="#666666"
     borderopacity="1"
     objecttolerance="10"
     gridtolerance="10"
     guidetolerance="10"
     inkscape:pageopacity="0"
     inkscape:pageshadow="2"
     inkscape:window-width="1920"
     inkscape:window-height="1027"
     id="namedview58"
     showgrid="false"
     inkscape:zoom="4.6238154"
     inkscape:cx="60.595758"
     inkscape:cy="45.135353"
     inkscape:window-x="1272"
     inkscape:window-y="22"
     inkscape:window-maximized="1"
     inkscape:current-layer="Layer_1" /><g
     id="g55"
     transform="matrix(0.24810833,0,0,0.24810832,-13.049781,-12.438073)"><path fill="currentColor" stroke="currentColor"
       d="m 119.9,336.1 c -30.8,0 -55.9,25.1 -55.9,55.8 0,30.8 25.1,55.6 55.9,55.6 30.9,0 55.9,-24.9 55.9,-55.6 0,-30.7 -25,-55.8 -55.9,-55.8 z m 0,95.4 c -22,0 -39.9,-17.8 -39.9,-39.6 0,-21.9 17.9,-39.8 39.9,-39.8 22,0 39.9,17.9 39.9,39.8 0,21.8 -17.9,39.6 -39.9,39.6 z"
       id="path49" /><path fill="currentColor" stroke="currentColor"
       d="m 64,192 v 79.9 c 48,0 94.1,14.2 128,48.1 33.9,33.9 48,79.9 48,128 h 80 C 320,308.1 204,192 64,192 Z m 239.5,240 h -48 C 252.4,382.3 234.5,339.9 203.3,308.7 172.1,277.4 130,259.5 80,256.4 v -47.8 c 26,1.8 52.1,8 76.7,18.5 28.5,12.2 54.2,29.6 76.4,51.8 22.2,22.2 39.6,47.9 51.8,76.4 10.6,24.6 16.8,50.3 18.6,76.7 z"
       id="path51" /><path fill="currentColor" stroke="currentColor"
       d="m 64,64 v 79.9 c 171,0 303.9,133 303.9,304.1 H 448 C 448,236.3 276,64 64,64 Z M 291.4,220.5 C 235.4,164.4 161,132 80,128.2 V 80.3 C 270,88.5 423.5,241.8 431.7,432 H 383.5 C 379.7,351.1 347.3,276.5 291.4,220.5 Z"
       id="path53" /></g></svg>
