<?xml version="1.0" ?><!DOCTYPE svg  PUBLIC '-//W3C//DTD SVG 1.1//EN'
        'http://www.w3.org/Graphics/SVG/1.1/DTD/svg11.dtd'>
<svg enable-background="new 0 0 56.693 56.693" height="56.693px" id="Layer_1" version="1.1" viewBox="0 0 56.693 56.693"
     width="56.693px" xml:space="preserve" xmlns="http://www.w3.org/2000/svg"
     xmlns:xlink="http://www.w3.org/1999/xlink"><path d="M3.428,31.085c6.19,0,12.009,2.418,16.382,6.816c4.381,4.398,6.793,10.256,6.793,16.492h9.539  c0-18.113-14.676-32.848-32.714-32.848V31.085z M3.443,14.174c22.061,0,40.01,18.047,40.01,40.231h9.539  c0-27.445-22.229-49.77-49.549-49.77V14.174z M16.634,47.741c0,3.648-2.959,6.607-6.607,6.607S3.42,51.39,3.42,47.741  c0-3.65,2.958-6.607,6.606-6.607S16.634,44.091,16.634,47.741z"/></svg>
